<?xml version="1.0" standalone="no"?>
<!DOCTYPE svg PUBLIC "-//W3C//DTD SVG 20010904//EN"
 "http://www.w3.org/TR/2001/REC-SVG-20010904/DTD/svg10.dtd">
<svg version="1.0" xmlns="http://www.w3.org/2000/svg"
 width="3485.000000pt" height="756.000000pt" viewBox="0 0 3485.000000 756.000000"
 preserveAspectRatio="xMidYMid meet">

<g transform="translate(0.000000,756.000000) scale(0.100000,-0.100000)"
fill="#000000" stroke="none">
<path d="M3154 7549 c-152 -11 -337 -42 -530 -89 -689 -167 -1292 -496 -1749
-955 -196 -196 -362 -425 -491 -680 -235 -459 -354 -911 -380 -1437 l-7 -148
693 0 c593 0 691 2 687 14 -3 8 -9 90 -12 183 -27 671 168 1312 545 1788 195
247 500 482 798 615 593 265 1286 301 1838 94 200 -74 449 -215 549 -311 l41
-38 59 -384 59 -384 111 7 c60 3 138 9 173 13 l62 6 0 518 0 517 -52 33 c-198
122 -572 287 -893 394 -430 144 -782 220 -1125 244 -161 12 -213 12 -376 0z"/>
<path d="M6070 6442 l0 -87 73 -17 c39 -10 108 -36 153 -57 206 -102 318 -300
371 -657 12 -88 16 -234 20 -746 l5 -638 578 0 578 0 5 653 c4 533 8 673 21
767 34 238 83 352 204 481 107 114 208 170 367 202 l60 13 3 88 3 87 -43 -5
c-226 -31 -712 -56 -1078 -57 -261 0 -990 31 -1267 55 l-53 5 0 -87z"/>
<path d="M9762 6442 l3 -84 85 -27 c131 -42 206 -86 291 -171 206 -205 239
-399 239 -1422 l0 -498 580 0 580 0 0 508 c0 498 10 784 31 932 35 253 147
452 317 563 77 51 181 94 247 103 l45 7 0 88 0 89 -52 -5 c-56 -6 -388 -27
-728 -46 -315 -18 -941 -4 -1370 31 -69 5 -158 11 -198 13 l-73 3 3 -84z"/>
<path d="M18450 6447 l0 -84 85 -31 c132 -47 211 -96 300 -186 91 -91 128
-157 169 -298 57 -196 59 -238 63 -950 l4 -658 580 0 579 0 0 108 c2 336 21
1197 30 1312 12 156 28 278 41 301 12 24 162 76 299 106 159 34 520 44 718 19
349 -45 612 -147 846 -330 362 -283 592 -776 648 -1388 l12 -128 618 0 c582 0
618 1 618 18 -1 103 -66 410 -121 567 -119 346 -261 576 -509 826 -310 312
-663 519 -1203 704 -480 165 -728 189 -1547 145 -528 -28 -993 -38 -1290 -29
-251 8 -829 43 -902 55 l-38 6 0 -85z"/>
<path d="M24235 6518 c-3 -8 -5 -48 -3 -88 l3 -72 71 -18 c320 -81 502 -321
570 -750 14 -87 17 -213 21 -727 l5 -623 578 0 578 0 5 733 c4 753 9 854 49
997 12 42 17 47 86 81 115 57 208 74 407 73 331 0 533 -69 700 -238 164 -166
230 -369 229 -711 -1 -358 -75 -579 -254 -756 -72 -72 -103 -95 -181 -133
l-94 -46 615 0 615 0 85 57 c102 69 240 204 299 292 131 193 190 420 178 686
-7 166 -39 294 -107 430 -119 241 -330 427 -675 595 -253 123 -449 174 -810
211 -171 17 -602 15 -835 -5 -368 -31 -496 -37 -830 -38 -408 -1 -1127 32
-1267 58 -24 4 -34 2 -38 -8z"/>
<path d="M13520 6438 l0 -86 88 -7 c403 -32 714 -192 930 -478 39 -50 86 -121
105 -157 l35 -65 -354 -695 c-194 -382 -354 -698 -354 -703 0 -4 106 -6 236
-5 l235 3 241 473 c132 259 243 470 246 468 4 -3 106 -216 227 -475 l220 -470
628 -1 c600 0 628 1 623 18 -4 10 -115 245 -247 522 -133 278 -258 548 -279
600 -21 53 -92 215 -158 360 -150 332 -203 453 -263 605 l-47 120 -459 2
c-363 1 -515 6 -733 23 -153 12 -417 24 -597 27 l-323 6 0 -85z"/>
<path d="M29540 6438 l0 -85 119 -11 c437 -43 776 -251 986 -607 25 -41 45
-80 45 -86 0 -11 -306 -619 -587 -1166 l-124 -243 238 0 238 0 235 461 c129
254 240 468 245 476 8 11 62 -95 235 -461 l224 -476 629 0 c499 0 628 3 624
13 -3 6 -119 253 -259 547 -140 294 -272 578 -293 630 -21 52 -87 203 -148
335 -108 238 -218 493 -272 633 l-28 72 -466 -1 c-392 0 -508 3 -731 21 -153
12 -402 24 -587 27 l-323 6 0 -85z"/>
<path d="M20 3945 c0 -39 42 -332 60 -420 86 -421 230 -767 465 -1120 315
-473 714 -826 1210 -1070 208 -103 364 -164 555 -218 369 -105 688 -147 1115
-147 254 0 383 8 635 40 825 103 1590 400 2104 817 l28 22 -152 176 c-83 96
-153 175 -156 175 -3 0 -45 -24 -94 -54 -48 -30 -141 -82 -207 -115 -580 -290
-1236 -427 -1838 -382 -1047 78 -1919 848 -2250 1986 -24 83 -51 189 -60 238
l-18 87 -698 0 c-607 0 -699 -2 -699 -15z"/>
<path d="M6690 3396 c0 -894 23 -1053 186 -1282 82 -117 258 -256 407 -324
154 -70 396 -140 617 -179 431 -77 1051 -89 1410 -27 332 57 678 185 975 361
42 25 79 45 82 45 12 0 -8 -208 -27 -288 -11 -46 -20 -87 -20 -92 0 -5 267 -8
593 -8 559 1 609 -1 892 -25 165 -15 317 -29 338 -33 l37 -6 0 90 0 89 -47 7
c-79 11 -179 51 -248 101 -186 132 -299 400 -335 790 -5 61 -10 388 -10 728
l0 617 -580 0 -580 0 -2 -757 -3 -758 -100 -63 c-141 -88 -427 -230 -575 -284
-575 -211 -1147 -180 -1496 80 -168 125 -247 245 -295 450 -44 185 -51 284
-56 820 l-5 512 -579 0 -579 0 0 -564z"/>
<path d="M13504 3333 c-174 -346 -348 -684 -386 -752 -223 -400 -492 -702
-749 -844 l-59 -32 0 -77 0 -78 65 0 c35 0 144 10 242 22 255 31 684 31 928 0
94 -12 205 -22 248 -22 l77 0 0 78 -1 77 -98 47 c-205 98 -295 252 -276 472
13 151 42 222 320 784 l264 532 814 0 814 0 223 -472 c123 -260 245 -528 272
-596 97 -243 127 -420 93 -537 -31 -109 -143 -193 -281 -212 l-44 -6 0 -89 0
-89 43 5 c56 8 429 33 702 47 280 15 821 14 1035 0 218 -15 514 -39 568 -47
l42 -5 0 83 -1 83 -107 52 c-282 137 -554 425 -826 877 -91 151 -180 325 -416
821 l-238 500 -1475 3 -1475 2 -318 -627z"/>
<path d="M19075 3948 c-2 -7 -6 -283 -8 -613 -5 -646 -12 -762 -63 -1014 -30
-148 -68 -245 -134 -339 -81 -116 -186 -192 -332 -243 l-83 -28 -3 -87 -3 -86
38 6 c21 3 169 16 328 28 253 19 366 22 890 23 511 0 628 -3 785 -18 238 -24
947 -35 1166 -18 607 47 1044 220 1524 605 540 434 822 955 880 1621 5 66 10
132 10 148 l0 27 -618 0 -618 0 -12 -182 c-14 -206 -31 -330 -68 -498 -161
-720 -609 -1169 -1288 -1293 -105 -19 -156 -22 -386 -22 -287 0 -399 12 -615
64 l-110 27 -12 54 c-71 310 -98 658 -109 1388 l-7 462 -574 0 c-450 0 -575
-3 -578 -12z"/>
<path d="M24897 3308 c-5 -660 -10 -760 -47 -959 -34 -182 -83 -301 -163 -398
-99 -119 -220 -191 -365 -220 l-87 -17 -3 -84 -3 -83 198 6 c109 4 248 14 308
23 143 21 1136 32 1405 15 182 -12 471 -37 528 -47 l32 -5 0 88 0 88 -80 17
c-287 59 -454 274 -532 683 -20 103 -21 151 -25 778 -4 546 -2 667 9 667 20 0
155 -76 228 -128 250 -179 524 -465 1266 -1323 920 -1063 1498 -1682 1764
-1888 587 -456 1251 -606 2004 -455 389 78 826 257 1162 477 l92 59 -24 72
c-13 39 -26 77 -29 84 -3 10 -14 6 -40 -13 -48 -37 -162 -80 -280 -105 -257
-55 -754 -29 -1072 55 -480 127 -1021 466 -1500 942 -127 126 -162 180 -184
285 -15 68 -6 210 20 309 31 123 77 223 353 782 l262 527 815 0 816 0 228
-484 c318 -678 368 -815 370 -1006 1 -79 -3 -104 -22 -148 -41 -92 -140 -159
-264 -177 l-47 -7 0 -89 0 -89 38 5 c20 3 141 12 267 20 797 52 1274 50 1923
-9 81 -8 150 -12 155 -9 13 7 8 150 -5 160 -7 5 -33 18 -58 28 -351 149 -710
568 -1035 1207 -51 101 -182 371 -291 601 l-198 417 -1474 -2 -1475 -3 -336
-661 c-350 -688 -391 -765 -463 -876 l-43 -67 -101 127 c-56 70 -211 269 -344
442 -288 374 -423 539 -543 666 -153 161 -327 289 -467 343 l-79 31 -1280 0
-1279 0 -5 -652z"/>
<path d="M34350 2682 c-30 -10 -66 -24 -79 -32 -49 -26 -124 -106 -155 -165
-29 -57 -31 -66 -31 -170 0 -102 2 -114 29 -168 37 -72 118 -150 193 -185 50
-23 71 -27 153 -27 85 0 102 3 160 31 165 78 252 249 215 425 -8 39 -25 90
-39 113 -35 59 -117 133 -182 163 -75 34 -187 40 -264 15z m253 -76 c134 -65
209 -224 174 -363 -17 -66 -53 -133 -71 -133 -6 0 -41 30 -76 66 -36 36 -82
79 -102 94 l-38 27 45 18 c61 23 85 56 85 115 0 38 -5 53 -26 74 -38 37 -82
46 -224 45 -110 0 -121 -2 -90 -12 l35 -12 3 -204 c3 -211 -1 -231 -39 -231
-11 0 -19 -4 -19 -10 0 -6 38 -10 94 -10 53 0 98 4 101 10 3 6 -4 10 -17 10
-41 0 -48 18 -48 117 0 51 3 93 7 93 4 0 57 -49 118 -110 90 -88 118 -110 141
-110 l29 -1 -30 -24 c-118 -98 -325 -80 -430 37 -60 66 -87 136 -87 225 0 66
4 84 33 141 40 78 106 137 181 164 75 26 178 20 251 -16z m-96 -101 c12 -8 27
-30 33 -49 23 -70 -33 -136 -115 -136 l-35 0 0 100 0 100 48 0 c26 0 57 -7 69
-15z"/>
</g>
</svg>
